<svg xmlns="http://www.w3.org/2000/svg" version="1.1" xmlns:xlink="http://www.w3.org/1999/xlink" xmlns:svgjs="http://svgjs.com/svgjs" width="1920" height="1080" preserveAspectRatio="none" viewBox="0 0 1920 1080"><g mask="url(&quot;#SvgjsMask1028&quot;)" fill="none"><rect width="1920" height="1080" x="0" y="0" fill="#0e2a47"></rect><path d="M0,581.787C109.589,577.948,143.549,424.192,226.583,352.569C294.17,294.27,405.886,283.457,440.996,201.396C476.074,119.409,413.618,30.615,402.171,-57.823C390.509,-147.926,428.044,-250.932,373.086,-323.28C317.897,-395.933,206.927,-384.713,124.363,-423.541C21.952,-471.703,-61.298,-610.461,-169.903,-578.638C-278.487,-546.821,-280.219,-388.914,-333.844,-289.278C-374.442,-213.846,-422.725,-146.457,-446.762,-64.235C-474.165,29.5,-525.45,132.632,-482.881,220.524C-440.3,308.439,-315.238,310.294,-237.021,368.811C-150.214,433.755,-108.346,585.583,0,581.787" fill="#0b2239"></path><path d="M1920 1979.406C2088.693 1964.473 2157.866 1752.527 2271.5190000000002 1626.975 2354.162 1535.68 2416.853 1437.3809999999999 2496.032 1343.065 2611 1206.118 2863.4629999999997 1124.952 2841.996 947.437 2820.733 771.6120000000001 2554.122 759.64 2412.601 653.159 2307.7200000000003 574.246 2230.863 471.432 2118.715 403.23900000000003 1972.455 314.304 1827.159 157.27800000000002 1660.3609999999999 195.75 1495.115 233.865 1434.664 437.804 1344.944 581.712 1268.213 704.7850000000001 1190.411 828.704 1175.781 972.997 1161.5030000000002 1113.821 1202.124 1252.281 1264.051 1379.562 1324.856 1504.538 1423.508 1599.172 1526.0720000000001 1692.964 1648.3600000000001 1804.792 1754.935 1994.018 1920 1979.406" fill="#113255"></path></g><defs><mask id="SvgjsMask1028"><rect width="1920" height="1080" fill="#ffffff"></rect></mask></defs></svg>